<svg xmlns="http://www.w3.org/2000/svg" viewBox="0 0 32 32"><path d="M27 16.76v-1.53l1.92-1.68A2 2 0 0 0 29.34 11l-2.36-4a2 2 0 0 0-1.73-1 2 2 0 0 0-.64.1l-2.43.82a11.4 11.4 0 0 0-1.31-.75l-.51-2.51a2 2 0 0 0-2-1.61h-4.78a2 2 0 0 0-2 1.61l-.51 2.5a11.5 11.5 0 0 0-1.32.75L7.4 6.06a2 2 0 0 0-.64-.1 2 2 0 0 0-1.74 1L2.66 11a2 2 0 0 0 .42 2.51L5 15.24v1.53l-1.92 1.68A2 2 0 0 0 2.66 21l2.36 4a2 2 0 0 0 1.74 1 2 2 0 0 0 .64-.1l2.43-.82a11.4 11.4 0 0 0 1.31.75l.51 2.51a2 2 0 0 0 2 1.61h4.78a2 2 0 0 0 2-1.61l.51-2.5a11.5 11.5 0 0 0 1.32-.75l2.42.82a2 2 0 0 0 .64.1 2 2 0 0 0 1.74-1l2.32-4a2 2 0 0 0-.42-2.51zM25.21 24l-3.43-1.16a8.9 8.9 0 0 1-2.71 1.57L18.36 28h-4.72l-.71-3.55a8.9 8.9 0 0 1-2.7-1.57L6.79 24l-2.36-4 2.72-2.4a8.9 8.9 0 0 1 0-3.13L4.43 12l2.36-4 3.43 1.16a8.9 8.9 0 0 1 2.71-1.57L13.64 4h4.72l.71 3.55a8.9 8.9 0 0 1 2.7 1.57L25.21 8l2.36 4-2.72 2.4a8.9 8.9 0 0 1 0 3.13L27.57 20z"/><path d="M16 22a6 6 0 1 1 6-6 6 6 0 0 1-6 6m0-10a4 4 0 1 0 4 4 4 4 0 0 0-4-4"/></svg>
